<?xml version="1.0" encoding="utf-8"?>
<!-- Generator: Adobe Illustrator 22.1.0, SVG Export Plug-In . SVG Version: 6.00 Build 0)  -->
<svg version="1.1" id="OBJECTS" xmlns="http://www.w3.org/2000/svg" xmlns:xlink="http://www.w3.org/1999/xlink" x="0px" y="0px"
	 viewBox="0 0 462 391.3" style="enable-background:new 0 0 462 391.3;" xml:space="preserve">
<style type="text/css">
	.st0{opacity:0.35;fill:#CCCCCC;}
	.st1{fill:#FFFFFF;}
	.st2{fill:url(#SVGID_1_);}
	.st3{fill:#CCCCCC;}
	.st4{fill:url(#SVGID_2_);}
	.st5{fill:#ABFE8F;}
	.st6{fill:#80FCE4;}
	.st7{fill:#FFFF88;}
	.st8{fill:#87FDA3;}
	.st9{fill:#79C7FB;}
	.st10{fill:#EAFF96;}
	.st11{fill:url(#SVGID_3_);}
	.st12{fill:url(#SVGID_4_);}
	.st13{fill:url(#SVGID_5_);}
	.st14{fill:url(#SVGID_6_);}
	.st15{fill:url(#SVGID_7_);}
	.st16{fill:url(#SVGID_8_);}
	.st17{fill:url(#SVGID_9_);}
	.st18{fill:url(#SVGID_10_);}
	.st19{fill:url(#SVGID_11_);}
	.st20{fill:url(#SVGID_12_);}
	.st21{fill:url(#SVGID_13_);}
	.st22{fill:url(#SVGID_14_);}
	.st23{fill:url(#SVGID_15_);}
	.st24{fill:url(#SVGID_16_);}
	.st25{fill:url(#SVGID_17_);}
	.st26{fill:url(#SVGID_18_);}
	.st27{fill:url(#SVGID_19_);}
	.st28{fill:url(#SVGID_20_);}
	.st29{clip-path:url(#SVGID_22_);}
	.st30{fill:url(#SVGID_23_);}
	.st31{clip-path:url(#SVGID_22_);fill:#CCCCCC;}
	.st32{fill:#F7A1B5;}
	.st33{fill:#F2E291;}
	.st34{fill:#3F0140;}
	.st35{fill:url(#SVGID_24_);}
	.st36{fill:url(#SVGID_25_);}
</style>
<g>
	<ellipse class="st0" cx="289.1" cy="355.7" rx="113.9" ry="20.1"/>
	<g>
		<path class="st1" d="M360.9,225.4c0.6-9.6-32.2,0.8-32.6,9c0,0,12.3,98.5,26.9,113.2c7.1-6.2,15.4-11.4,24.4-15.1
			C373.1,300.8,360.4,232.8,360.9,225.4z"/>
		<linearGradient id="SVGID_1_" gradientUnits="userSpaceOnUse" x1="364.2635" y1="292.9699" x2="370.9627" y2="368.894">
			<stop  offset="0" style="stop-color:#59E3FF"/>
			<stop  offset="1" style="stop-color:#595FFF"/>
		</linearGradient>
		<path class="st2" d="M356.1,348.4c15.7,11.4,28.2,1.8,27,0c-0.3-0.4-1.6-6.6-3.5-16c-9,3.7-17.3,8.9-24.4,15.1
			C355.4,347.9,355.8,348.2,356.1,348.4z"/>
	</g>
	<g>
		<path class="st3" d="M360.9,225.4c0.6-9.6-32.2,0.8-32.6,9c0,0,12.3,98.5,26.9,113.2c7.1-6.2,15.4-11.4,24.4-15.1
			C373.1,300.8,360.4,232.8,360.9,225.4z"/>
		<path class="st3" d="M356.1,348.4c15.7,11.4,28.2,1.8,27,0c-0.3-0.4-1.6-6.6-3.5-16c-9,3.7-17.3,8.9-24.4,15.1
			C355.4,347.9,355.8,348.2,356.1,348.4z"/>
	</g>
	<g>
		<path class="st1" d="M268,253.5l-38.1-9.8c0,0-2.3,36.7-6.2,40.9c-3.9,4.2-2.8,59.7,0,63.9c0,0.1,0.1,0.1,0.2,0.2
			c6.3-4.1,13.3-7.3,20.7-9.5c-4.6-16.2-4.9-44.5-4.9-44.5s6.5,1.2,17.6-2.4c14.2-4.4,11.1-25.6,10.8-36.1
			C267.9,255.2,267.9,254.3,268,253.5z"/>
		<linearGradient id="SVGID_2_" gradientUnits="userSpaceOnUse" x1="233.0318" y1="304.3739" x2="239.7565" y2="380.5876">
			<stop  offset="0" style="stop-color:#59E3FF"/>
			<stop  offset="1" style="stop-color:#595FFF"/>
		</linearGradient>
		<path class="st4" d="M248.8,348.4c-1.7-1.9-3.2-5.2-4.3-9.2c-7.4,2.2-14.4,5.4-20.7,9.5C227.4,352.8,257.4,357.8,248.8,348.4z"/>
		<path class="st3" d="M268,253.5l-38.1-9.8c0,0-2.3,36.7-6.2,40.9c-3.9,4.2-2.8,59.7,0,63.9c0,0.1,0.1,0.1,0.2,0.2
			c3.7,4.1,33.6,9.2,25-0.2c-1.7-1.9-3.2-5.2-4.3-9.2c-4.6-16.2-4.9-44.5-4.9-44.5s6.5,1.2,17.6-2.4c14.2-4.4,11.1-25.6,10.8-36.1
			C267.9,255.2,267.9,254.3,268,253.5z"/>
	</g>
	<g>
		<path class="st5" d="M255,81.2l16.3-11.2c0,0-1.8-4-4.5-9.7c-4.9,4.1-10,8-15.3,11.8C253.6,77.5,255,81.2,255,81.2z"/>
		<path class="st6" d="M239.5,19.8c-1.6,0.9-1.8,4-1.2,8.5c2.6-1.4,5.2-2.9,7.7-4.4C243.4,20.7,241.1,18.9,239.5,19.8z"/>
		<path class="st7" d="M246.1,23.9c-2.6,1.5-5.1,3-7.7,4.4c0.4,3.1,1.2,6.7,2.3,10.7c3.5-2.6,7.1-5.2,10.6-7.8
			C249.4,28.4,247.7,25.8,246.1,23.9z"/>
		<path class="st8" d="M251.2,31.2c-3.5,2.6-7.1,5.2-10.6,7.8c0.9,3.3,1.9,6.8,3,10.3c4.3-2.9,8.7-5.9,13.1-8.8
			C254.9,37.3,253,34.1,251.2,31.2z"/>
		<path class="st9" d="M247.8,61.8c1.3,3.8,2.6,7.3,3.7,10.2c5.2-3.8,10.3-7.7,15.3-11.8c-1.5-3.1-3.2-6.6-5.1-10.3
			C256.8,53.7,252.2,57.7,247.8,61.8z"/>
		<path class="st10" d="M261.6,49.9c-1.6-3.1-3.2-6.2-4.9-9.3c-4.4,2.9-8.7,5.8-13.1,8.8c1.3,4.2,2.8,8.5,4.2,12.4
			C252.2,57.7,256.8,53.7,261.6,49.9z"/>
	</g>
	<g>
		<g>
			<linearGradient id="SVGID_3_" gradientUnits="userSpaceOnUse" x1="186.6465" y1="118.8414" x2="186.4806" y2="119.5522">
				<stop  offset="0" style="stop-color:#59E3FF"/>
				<stop  offset="1" style="stop-color:#59B9FF"/>
			</linearGradient>
			<path class="st11" d="M186.7,119.2c-0.1-0.1-0.1-0.2-0.2-0.3C186.6,119,186.6,119.1,186.7,119.2z"/>
		</g>
		<g>
			<linearGradient id="SVGID_4_" gradientUnits="userSpaceOnUse" x1="186.203" y1="117.9859" x2="186.0828" y2="118.5007">
				<stop  offset="0" style="stop-color:#59E3FF"/>
				<stop  offset="1" style="stop-color:#59B9FF"/>
			</linearGradient>
			<path class="st12" d="M186.2,118.2c0-0.1,0-0.1-0.1-0.2C186.2,118.1,186.2,118.1,186.2,118.2z"/>
		</g>
		<g>
			<linearGradient id="SVGID_5_" gradientUnits="userSpaceOnUse" x1="185.9962" y1="117.2263" x2="185.8492" y2="117.8564">
				<stop  offset="0" style="stop-color:#59E3FF"/>
				<stop  offset="1" style="stop-color:#59B9FF"/>
			</linearGradient>
			<path class="st13" d="M186,117.5c0-0.1,0-0.2-0.1-0.3C186,117.3,186,117.4,186,117.5z"/>
		</g>
		<g>
			<linearGradient id="SVGID_6_" gradientUnits="userSpaceOnUse" x1="240.8134" y1="66.8559" x2="190.1428" y2="283.9334">
				<stop  offset="0" style="stop-color:#59E3FF"/>
				<stop  offset="1" style="stop-color:#59B9FF"/>
			</linearGradient>
			<path class="st14" d="M254,87.5c-2.7-4.2-6.9-7.7-11.7-10c4,3.6,7.5,7.6,10.4,11.6c0.4,0.5-0.5,1-0.9,0.5
				c-3.4-4.7-7.8-9.4-12.9-13.4c-2.2-0.7-4.6-1.2-6.9-1.4c-2.8-0.2-5.8,0-8.3,1.3c-3,1.6-4.5,4.6-5.2,7.8
				c12.8-0.2,25.6,3.4,36.3,10.7c0.5,0.3,0,1.1-0.5,0.7C243.5,88,230.9,84.7,218.3,85c-0.2,1-0.3,2-0.3,3c-0.2,4.5,0.3,9.2-2,13.3
				c-0.5,0.9-1.1,1.7-1.8,2.4c1.3-0.5,2.6-1,3.9-1.4c6.5-2.2,13.5-3.7,20.5-4.1c5.1-0.3,11.2-0.5,14.8,3.2c0.4,0.4-0.2,0.9-0.6,0.5
				c-4.8-4.5-14.9-2.8-21-1.8c-6.2,0.9-12.3,2.7-18.1,5c-0.7,0.3-1.4,0.6-2.1,0.9c-2.5,1.8-5.6,3.1-8.8,4.3
				c-5.3,2.9-10.3,6.1-15.2,9.6c0,0.2,0,0.5,0,0.7c-0.1-0.1-0.2-0.2-0.3-0.4c0.4,0.5,0.9,1.1,1.5,1.5c0.8,0.7,1.7,1.2,2.6,1.7
				c2.5-1,5-2.1,7.4-3.3c7.3-3.8,13.7-8.7,21-12.5c11-5.8,27-9.1,36.5,0.7c0,0,0,0.1-0.1,0.1c-14.1-11.1-31.6-2.6-44.4,5.4
				c-6.2,3.9-12.4,7.4-19.1,10.3c4,1.7,8.7,2,13.1,0.9c-1.8,1.8-3.4,3.7-4.7,5.8c-0.9,1.4-1.7,3-1.2,4.5c0.6,1.8,2.7,2.7,4.6,3.3
				c1.7,0.5,3.5,0.7,5.3,0.8c5.1-5.2,10-10.5,15.7-15.2c8.5-7,20.9-13.8,32.4-8.5c0.5,0.2,0.1,1-0.5,0.7
				c-14.2-6.6-28.8,5.3-37.7,14.1c-2.9,2.9-5.7,5.9-8.6,8.9c4-0.1,8-1.1,11.4-3c-1.3,1.1-2.5,2.3-3.5,3.6c-2.2,2.6-3.9,5.8-3.4,9
				c0.7,4.3,5.4,7.3,10.1,7.9c1.4,0.2,2.8,0.1,4.2,0c3.5-5.3,5.9-11,8.6-17.1c3-6.7,7.7-19.5,17.4-19.9c0.6,0,0.6,0.8,0,0.8
				c-7.7,0.3-12.3,10.4-14.9,15.8c-2.2,4.6-4,9.3-6.2,13.9c-1,2.1-2,4.2-3.2,6.2c2.7-0.5,5.4-1.5,8-2.6c0.4-0.2,0.8-0.4,1.2-0.5
				c2.2-5.4,3.7-11.1,5.3-17.1c0.2-0.7,1.5-0.4,1.3,0.3c-1.2,4.9-2.3,10.3-3.9,15.5c10.3-5.4,18.8-13.6,23.9-23.3L254,87.5z"/>
		</g>
		<g>
			<linearGradient id="SVGID_7_" gradientUnits="userSpaceOnUse" x1="185.9042" y1="116.4885" x2="185.7661" y2="117.0802">
				<stop  offset="0" style="stop-color:#59E3FF"/>
				<stop  offset="1" style="stop-color:#59B9FF"/>
			</linearGradient>
			<path class="st15" d="M185.9,116.7c0-0.1,0-0.2,0-0.2C185.9,116.6,185.9,116.7,185.9,116.7z"/>
		</g>
		<g>
			<linearGradient id="SVGID_8_" gradientUnits="userSpaceOnUse" x1="193.2188" y1="111.2845" x2="188.9668" y2="129.5002">
				<stop  offset="0" style="stop-color:#59E3FF"/>
				<stop  offset="1" style="stop-color:#59B9FF"/>
			</linearGradient>
			<path class="st16" d="M188.4,118c2.5-1.8,5.1-3.6,7.8-5.2c-1.7,0.7-3.3,1.5-4.8,2.5C190.2,116,189.1,116.9,188.4,118z"/>
		</g>
		<g>
			<linearGradient id="SVGID_9_" gradientUnits="userSpaceOnUse" x1="208.3781" y1="77.8609" x2="183.2332" y2="185.5838">
				<stop  offset="0" style="stop-color:#59E3FF"/>
				<stop  offset="1" style="stop-color:#59B9FF"/>
			</linearGradient>
			<path class="st17" d="M191.4,115.3c1.5-0.9,3.1-1.7,4.8-2.5c5.7-3.5,11.7-6.6,18.1-9.1c0.7-0.7,1.3-1.5,1.8-2.4
				c2.3-4,1.8-8.8,2-13.3c0-1,0.1-2,0.3-3c-0.7,0-1.4,0-2.1,0.1c-0.1,4.3,0.2,8.7-1.9,12.4c-4.5,7.9-16.6,8.9-24.7,14
				c-1.7,1.1-3.3,2.5-3.6,4.3c0,0.2-0.1,0.5-0.1,0.7c0,0.1,0,0.2,0,0.2c0,0.2,0,0.3,0.1,0.5c0,0.1,0,0.2,0.1,0.3
				c0,0.2,0.1,0.3,0.2,0.5c0,0.1,0,0.1,0.1,0.2c0.1,0.2,0.2,0.4,0.3,0.6c0.1,0.1,0.1,0.2,0.2,0.3c0,0,0,0,0,0
				c0.5-0.4,1.1-0.8,1.6-1.2C189.1,116.9,190.2,116,191.4,115.3z"/>
		</g>
		<g>
			<linearGradient id="SVGID_10_" gradientUnits="userSpaceOnUse" x1="187.6244" y1="119.6346" x2="187.1937" y2="121.4796">
				<stop  offset="0" style="stop-color:#59E3FF"/>
				<stop  offset="1" style="stop-color:#59B9FF"/>
			</linearGradient>
			<path class="st18" d="M187.7,119.7c-0.1,0.1-0.3,0.2-0.4,0.3c0,0,0,0,0,0.1c0.1,0.1,0.2,0.3,0.3,0.4
				C187.7,120.2,187.7,120,187.7,119.7z"/>
		</g>
		<g>
			<linearGradient id="SVGID_11_" gradientUnits="userSpaceOnUse" x1="245.7141" y1="73.0161" x2="238.9164" y2="102.1379">
				<stop  offset="0" style="stop-color:#59E3FF"/>
				<stop  offset="1" style="stop-color:#59B9FF"/>
			</linearGradient>
			<path class="st19" d="M254,87.5l-0.5-1.4c-3.4-7.1-10.8-12.5-19.1-14.4c2.8,1.7,5.4,3.7,7.9,5.8C247.1,79.8,251.3,83.2,254,87.5z
				"/>
		</g>
		<g>
			<linearGradient id="SVGID_12_" gradientUnits="userSpaceOnUse" x1="208.1356" y1="104.3277" x2="204.3138" y2="120.7009">
				<stop  offset="0" style="stop-color:#59E3FF"/>
				<stop  offset="1" style="stop-color:#59B9FF"/>
			</linearGradient>
			<path class="st20" d="M211.7,105.9c-3,1.3-5.9,2.7-8.8,4.3C206.1,108.9,209.1,107.7,211.7,105.9z"/>
		</g>
		<g>
			<linearGradient id="SVGID_13_" gradientUnits="userSpaceOnUse" x1="229.9346" y1="68.9727" x2="220.0658" y2="111.2517">
				<stop  offset="0" style="stop-color:#59E3FF"/>
				<stop  offset="1" style="stop-color:#59B9FF"/>
			</linearGradient>
			<path class="st21" d="M223.7,76.1c2.4-1.3,5.4-1.5,8.3-1.3c2.4,0.2,4.7,0.7,6.9,1.4c-2.4-1.9-5.1-3.6-7.8-5.1
				c-0.3,0-0.6-0.1-0.9-0.1c-2.8-0.2-5.8,0-8.3,1.3c-4.2,2.3-5.5,7.2-5.7,11.6c0.8,0,1.5-0.1,2.3-0.1
				C219.2,80.7,220.7,77.7,223.7,76.1z"/>
		</g>
		<g>
			<linearGradient id="SVGID_14_" gradientUnits="userSpaceOnUse" x1="238.9452" y1="106.5253" x2="217.5584" y2="198.1482">
				<stop  offset="0" style="stop-color:#59E3FF"/>
				<stop  offset="1" style="stop-color:#59B9FF"/>
			</linearGradient>
			<path class="st22" d="M257.5,116.2c0.5,0.2,1-0.5,0.5-0.7c-11.5-5.3-24,1.4-32.4,8.5c-5.7,4.7-10.6,10.1-15.7,15.2
				c0.5,0,1,0,1.4,0c2.9-3,5.7-6,8.6-8.9C228.8,121.5,243.4,109.6,257.5,116.2z"/>
		</g>
		<path class="st3" d="M257.5,116.2c0.5,0.2,1-0.5,0.5-0.7c-11.5-5.3-24,1.4-32.4,8.5c-5.7,4.7-10.6,10.1-15.7,15.2c0.5,0,1,0,1.4,0
			c2.9-3,5.7-6,8.6-8.9C228.8,121.5,243.4,109.6,257.5,116.2z"/>
		<g>
			<linearGradient id="SVGID_15_" gradientUnits="userSpaceOnUse" x1="228.7912" y1="94.5884" x2="208.3304" y2="182.2446">
				<stop  offset="0" style="stop-color:#59E3FF"/>
				<stop  offset="1" style="stop-color:#59B9FF"/>
			</linearGradient>
			<path class="st23" d="M256.2,108.2C256.3,108.2,256.3,108.2,256.2,108.2c-9.5-9.9-25.4-6.5-36.4-0.8c-7.3,3.8-13.7,8.7-21,12.5
				c-2.4,1.3-4.9,2.4-7.4,3.3c0.4,0.2,0.8,0.4,1.3,0.6c6.6-2.9,12.9-6.4,19.1-10.3C224.6,105.6,242.2,97.2,256.2,108.2z"/>
		</g>
		<path class="st3" d="M256.2,108.2C256.3,108.2,256.3,108.2,256.2,108.2c-9.5-9.9-25.4-6.5-36.4-0.8c-7.3,3.8-13.7,8.7-21,12.5
			c-2.4,1.3-4.9,2.4-7.4,3.3c0.4,0.2,0.8,0.4,1.3,0.6c6.6-2.9,12.9-6.4,19.1-10.3C224.6,105.6,242.2,97.2,256.2,108.2z"/>
		<g>
			<linearGradient id="SVGID_16_" gradientUnits="userSpaceOnUse" x1="225.1126" y1="89.0658" x2="203.5552" y2="181.42">
				<stop  offset="0" style="stop-color:#59E3FF"/>
				<stop  offset="1" style="stop-color:#59B9FF"/>
			</linearGradient>
			<path class="st24" d="M202.9,110.2c2.8-1.5,5.8-3,8.8-4.3c0.7-0.3,1.4-0.6,2.1-0.9c5.8-2.3,11.9-4,18.1-5
				c6.1-0.9,16.2-2.7,21,1.8c0.4,0.4,1-0.2,0.6-0.5c-3.7-3.7-9.8-3.5-14.8-3.2c-7,0.4-13.9,1.9-20.5,4.1c-1.3,0.4-2.6,0.9-3.9,1.4
				c-6.3,2.5-12.4,5.6-18.1,9.1c-2.7,1.7-5.3,3.4-7.8,5.2c-0.6,0.4-1.1,0.8-1.6,1.2c0.2,0.3,0.4,0.6,0.6,0.8
				c0.1-0.1,0.3-0.2,0.4-0.3C192.6,116.3,197.6,113,202.9,110.2z"/>
		</g>
		<path class="st3" d="M202.9,110.2c2.8-1.5,5.8-3,8.8-4.3c0.7-0.3,1.4-0.6,2.1-0.9c5.8-2.3,11.9-4,18.1-5c6.1-0.9,16.2-2.7,21,1.8
			c0.4,0.4,1-0.2,0.6-0.5c-3.7-3.7-9.8-3.5-14.8-3.2c-7,0.4-13.9,1.9-20.5,4.1c-1.3,0.4-2.6,0.9-3.9,1.4c-6.3,2.5-12.4,5.6-18.1,9.1
			c-2.7,1.7-5.3,3.4-7.8,5.2c-0.6,0.4-1.1,0.8-1.6,1.2c0.2,0.3,0.4,0.6,0.6,0.8c0.1-0.1,0.3-0.2,0.4-0.3
			C192.6,116.3,197.6,113,202.9,110.2z"/>
		<g>
			<linearGradient id="SVGID_17_" gradientUnits="userSpaceOnUse" x1="236.5108" y1="85.5391" x2="233.4603" y2="98.6078">
				<stop  offset="0" style="stop-color:#59E3FF"/>
				<stop  offset="1" style="stop-color:#59B9FF"/>
			</linearGradient>
			<path class="st25" d="M254.3,95.3c0.5,0.3,0.9-0.4,0.5-0.7c-10.7-7.3-23.6-10.9-36.3-10.7c-0.8,0-1.5,0-2.3,0.1
				c0,0.1,0,0.2,0,0.3c0,0.3,0,0.6,0,0.8c0.7,0,1.4-0.1,2.1-0.1C230.9,84.7,243.5,88,254.3,95.3z"/>
		</g>
		<path class="st3" d="M254.3,95.3c0.5,0.3,0.9-0.4,0.5-0.7c-10.7-7.3-23.6-10.9-36.3-10.7c-0.8,0-1.5,0-2.3,0.1c0,0.1,0,0.2,0,0.3
			c0,0.3,0,0.6,0,0.8c0.7,0,1.4-0.1,2.1-0.1C230.9,84.7,243.5,88,254.3,95.3z"/>
		<g>
			<linearGradient id="SVGID_18_" gradientUnits="userSpaceOnUse" x1="243.7726" y1="72.2523" x2="235.3398" y2="108.3792">
				<stop  offset="0" style="stop-color:#59E3FF"/>
				<stop  offset="1" style="stop-color:#59B9FF"/>
			</linearGradient>
			<path class="st26" d="M251.8,89.5c0.4,0.5,1.3,0,0.9-0.5c-2.8-3.9-6.4-8-10.4-11.6c-2.4-2.2-5.1-4.2-7.9-5.8
				c-1.1-0.2-2.2-0.4-3.3-0.5c2.8,1.4,5.4,3.2,7.8,5.1C244,80.1,248.3,84.9,251.8,89.5z"/>
		</g>
		<path class="st3" d="M251.8,89.5c0.4,0.5,1.3,0,0.9-0.5c-2.8-3.9-6.4-8-10.4-11.6c-2.4-2.2-5.1-4.2-7.9-5.8
			c-1.1-0.2-2.2-0.4-3.3-0.5c2.8,1.4,5.4,3.2,7.8,5.1C244,80.1,248.3,84.9,251.8,89.5z"/>
		<g>
			<linearGradient id="SVGID_19_" gradientUnits="userSpaceOnUse" x1="249.1684" y1="113.2108" x2="223.151" y2="224.6719">
				<stop  offset="0" style="stop-color:#59E3FF"/>
				<stop  offset="1" style="stop-color:#59B9FF"/>
			</linearGradient>
			<path class="st27" d="M241.2,136.4c2.6-5.4,7.2-15.4,14.9-15.8c0.6,0,0.6-0.9,0-0.8c-9.6,0.4-14.4,13.2-17.4,19.9
				c-2.7,6-5.2,11.8-8.6,17.1c0.6-0.1,1.1-0.1,1.7-0.2c1.2-2,2.3-4.1,3.2-6.2C237.2,145.7,239,141,241.2,136.4z"/>
		</g>
		<path class="st3" d="M241.2,136.4c2.6-5.4,7.2-15.4,14.9-15.8c0.6,0,0.6-0.9,0-0.8c-9.6,0.4-14.4,13.2-17.4,19.9
			c-2.7,6-5.2,11.8-8.6,17.1c0.6-0.1,1.1-0.1,1.7-0.2c1.2-2,2.3-4.1,3.2-6.2C237.2,145.7,239,141,241.2,136.4z"/>
		<g>
			<linearGradient id="SVGID_20_" gradientUnits="userSpaceOnUse" x1="246.7539" y1="133.7127" x2="235.3374" y2="182.622">
				<stop  offset="0" style="stop-color:#59E3FF"/>
				<stop  offset="1" style="stop-color:#59B9FF"/>
			</linearGradient>
			<path class="st28" d="M246.1,136.3c-1.6,5.9-3.1,11.6-5.3,17.1c0.9-0.4,1.7-0.8,2.6-1.3c1.7-5.1,2.7-10.5,3.9-15.5
				C247.6,135.9,246.3,135.6,246.1,136.3z"/>
		</g>
		<path class="st3" d="M246.1,136.3c-1.6,5.9-3.1,11.6-5.3,17.1c0.9-0.4,1.7-0.8,2.6-1.3c1.7-5.1,2.7-10.5,3.9-15.5
			C247.6,135.9,246.3,135.6,246.1,136.3z"/>
	</g>
	<g>
		<g>
			<defs>
				<path id="SVGID_21_" d="M198.7,217.7c-1-11.5-3-23.4-10.3-32.8c-10.8-13.9-32.8-19.3-50.5-13.3c-22.2,7.6-35.7,29.8-58.7,35.4
					c-10.4,2.5-21.5,1.3-32.2,2.4c-2.3,0.2-4.8,0.7-6.2,2.3c-1.5,1.6-1.5,3.9-1,6c1.9,8.9,11.4,15.9,21.5,15.9
					c-4.1,0.4-8.2,0.8-12.3,1.2c-6.5,0.6-13.5,1.4-18.5,5.3c-1.2,0.9-2.2,2.1-2.2,3.5c0,1.1,0.8,2.1,1.6,3
					c5.9,6.5,15.6,9.6,24.9,9.7c7.3,0.1,14.5-1.4,21.4-3.6c-1.5,1.4-2.5,3.5-2.4,5.5c0.3,4,3.8,7.3,7.9,8.9s8.7,1.7,13.1,1.7
					c7.6,0,15.3-0.2,22.9-1.2c17-2.4,33.1-9,47.4-17.6c16.6-9.8,31.8-23.1,37.4-40.2L198.7,217.7z"/>
			</defs>
			<clipPath id="SVGID_22_">
				<use xlink:href="#SVGID_21_"  style="overflow:visible;"/>
			</clipPath>
			<g class="st29">
				<linearGradient id="SVGID_23_" gradientUnits="userSpaceOnUse" x1="137.4137" y1="181.1402" x2="93.5628" y2="264.5984">
					<stop  offset="0" style="stop-color:#59E3FF"/>
					<stop  offset="1" style="stop-color:#595FFF"/>
				</linearGradient>
				<path class="st30" d="M198.7,217.7c-1-11.5-3-23.4-10.3-32.8c-10.8-13.9-32.8-19.3-50.5-13.3c-22.2,7.6-35.7,29.8-58.7,35.4
					c-10.4,2.5-21.5,1.3-32.2,2.4c-2.3,0.2-4.8,0.7-6.2,2.3c-1.5,1.6-1.5,3.9-1,6c1.9,8.9,11.4,15.9,21.5,15.9
					c-4.1,0.4-8.2,0.8-12.3,1.2c-6.5,0.6-13.5,1.4-18.5,5.3c-1.2,0.9-2.2,2.1-2.2,3.5c0,1.1,0.8,2.1,1.6,3
					c5.9,6.5,15.6,9.6,24.9,9.7c7.3,0.1,14.5-1.4,21.4-3.6c-1.5,1.4-2.5,3.5-2.4,5.5c0.3,4,3.8,7.3,7.9,8.9s8.7,1.7,13.1,1.7
					c7.6,0,15.3-0.2,22.9-1.2c17-2.4,33.1-9,47.4-17.6c16.6-9.8,31.8-23.1,37.4-40.2L198.7,217.7z"/>
			</g>
			<path class="st31" d="M197.9,218.8c0.1-0.1,0.2-0.2,0.3-0.3c0,0,0,0,0,0c-0.9-3.2-10.7-4.8-13.6-5.3c-7-1.3-14.1-1.1-21,0.2
				c-16,2.9-31.1,10-45.6,16.6c-15.3,6.9-30.4,14.2-46.6,19.2c-16.9,5.3-37.7,9.6-52.5-2.3c-0.3-0.3-0.8,0.1-0.5,0.4
				c22.5,19.8,59.2,2.8,82.1-7.6c14.3-6.5,28.3-13.6,43-19.3c8.6-3.3,17.7-6.4,27.1-7.2c4.6-0.4,9.2-0.2,13.7,0.6
				c1.7,0.3,3.4,0.6,5,1.1C190.3,214.9,199.2,218,197.9,218.8C197.7,218.7,197.8,218.8,197.9,218.8L197.9,218.8z"/>
			<path class="st31" d="M181.8,219.7c-11.3-1.2-21.7,3-31.4,7.8c-11.1,5.4-21.6,11.7-31.7,18.6c-19.4,13.3-37.5,33.5-63,36.7
				c-0.5,0.1-0.4,0.9,0.1,0.8c23.7-1.3,40.3-19.3,57.5-31.8c10-7.3,20.4-14.1,31.4-20.2c11.2-6.2,23.5-12.8,37.1-11.6
				C182,220,182,219.7,181.8,219.7L181.8,219.7z"/>
			<path class="st31" d="M179.9,229.2c-7.9,11.5-16.7,22.5-27,32.4c-10.4,9.9-22.2,17.3-35.2,24.1c-0.7,0.4-0.3,1.6,0.6,1.3
				C146.3,277,165.9,251.9,179.9,229.2C180,229.2,179.9,229.1,179.9,229.2L179.9,229.2z"/>
			<path class="st31" d="M197.9,211.1c-19.1-19.2-48-16.5-73.3-11.6c-14.3,2.8-28.5,6.3-42.9,8.6c-13.2,2.1-36.3,6.9-45-5.6
				c-0.5-0.7-1.6-0.1-1.2,0.6c5.6,10.5,19.7,10.4,30.9,9.4c14.7-1.3,29-4.6,43.3-7.8c14.9-3.4,30.3-7.2,45.7-7.7
				c7.8-0.2,15.6,0.6,22.8,3.1C185.6,202.7,191.6,206.9,197.9,211.1C197.9,211.1,197.9,211.1,197.9,211.1L197.9,211.1z"/>
			<path class="st31" d="M190.1,201.5c-7-13-19.9-23.1-36-25.7c-19.3-3.1-40.3-0.1-58.7,5.1c-0.5,0.1-0.3,0.8,0.2,0.6
				c17.7-4.3,37.2-6.7,55.5-4.6C168.5,179.2,180.9,188.6,190.1,201.5C190.1,201.6,190.2,201.6,190.1,201.5L190.1,201.5z"/>
			<path class="st31" d="M145.3,214.9c-26.1,7.1-49.7,19.6-75.4,27.5c-25.2,7.8-54.1,11.1-78.3-1c-0.4-0.2-0.8,0.4-0.4,0.6
				c51.3,27.9,106.3-12.5,154.5-26.1C146.3,215.7,146,214.7,145.3,214.9L145.3,214.9z"/>
		</g>
	</g>
	<g>
		<path class="st32" d="M239.4,55.2c2.7,8.2,7.5,15.8,11.7,23.5c4.1-5.1,4.3-12.4,2.2-18.3c-1.3-3.9-3.3-7.9-6.4-10.9
			c-2.3-2.2-4.6-3.1-7.2-3.6c-0.8,1-1.2,2.2-1.4,3.3C238.2,51.3,238.8,53.3,239.4,55.2z"/>
		<path class="st1" d="M239.4,55.2c-0.6-1.9-1.2-3.9-0.9-5.9c0.1-1.2,0.6-2.4,1.4-3.3c-1.7-0.4-3.5-0.6-5.5-0.9
			c-3.7-0.6-7.6,2.8-5.2,6.1c1.7,2.5,2.1,5.4,4.2,7.9c1.9,2.3,4.3,4.3,6.2,6.6c3.6,4.5,6.2,9.5,9.5,14.1c0.2,0.3,0.7,0.4,1,0.1
			c0.4-0.4,0.7-0.8,1.1-1.2C246.9,71,242.2,63.5,239.4,55.2z"/>
	</g>
	<g>
		<path class="st33" d="M326.4,63.2c3.6,1.3,7.4,1.9,11.2,2c-0.1-0.6-0.2-1.2-0.3-1.8c0,0,27-15.5,8.4-37.6
			C327,3.7,308,27.6,298.5,34.8c-0.1,0-0.1,0.1-0.2,0.2c1.7,4.2,4.3,8.2,7.2,11.9C310.9,53.7,317.6,60.1,326.4,63.2z"/>
		<path class="st32" d="M326.4,63.2c3.6,1.3,7.4,1.9,11.2,2c-0.1-0.6-0.2-1.2-0.3-1.8c0,0,27-15.5,8.4-37.6
			C327,3.7,308,27.6,298.5,34.8c-0.1,0-0.1,0.1-0.2,0.2c1.7,4.2,4.3,8.2,7.2,11.9C310.9,53.7,317.6,60.1,326.4,63.2z"/>
		<path class="st1" d="M337.6,65.2c-3.8-0.1-7.6-0.7-11.2-2c-8.8-3.1-15.5-9.5-20.9-16.4c-2.9-3.7-5.5-7.7-7.2-11.9
			c-9.8,7.4-45,36.9-49.4,42.8c-4.6,6.1,8.2,89.6,4.2,121.8s-7.9,66.9,4,70.5c12,3.6,99.2-13.7,106.6-45.4S305.9,116,305.9,116
			S343.2,107.3,337.6,65.2z"/>
	</g>
	<path class="st34" d="M331.5,43.1c0.6,2.6,2.6,5.4,5.7,5.7c3.2,0.4,5.6-1.6,5.9-4.4c0.1-0.9-1.5-1.1-1.7-0.2
		c-0.6,1.9-2.6,3.3-4.9,2.5c-1.8-0.7-2.8-2.4-3.3-4.1C332.9,41.6,331.2,42.1,331.5,43.1L331.5,43.1z"/>
	<path class="st34" d="M286.8,61.3c3,3.2,5.6,9.4,0.5,12.1c-3.7,2-8.3,0.8-12.3,0.5c-1.9-0.1-2,2.3-0.4,2.8c5.5,1.7,12.9,1.9,16.4-3
		c3.2-4.4,0.2-9.8-3.6-12.9C286.9,60.6,286.4,61,286.8,61.3L286.8,61.3z"/>
	<ellipse transform="matrix(0.9621 -0.2726 0.2726 0.9621 3.7582 88.041)" class="st34" cx="318.7" cy="30.5" rx="5.4" ry="4.5"/>
	<g>
		<path class="st33" d="M328.4,145.2c-4.4,2.8-7.9,7-9.9,11.5c-5.9,13.6-1.2,28.8,3.9,42.6c5.2,13.8,10.9,28.4,7,42.6
			c-1.7,6.1-5.2,11.7-10,16.2c21.5-7.8,40.9-19.2,44.2-33.4C368.1,205.7,346.5,170.4,328.4,145.2z"/>
	</g>
	<g>
		<g>
			<path class="st1" d="M308.3,248.9c0.8,0,0.8-1.3,0-1.3C307.5,247.6,307.5,248.9,308.3,248.9L308.3,248.9z"/>
		</g>
	</g>
	<g>
		<path class="st1" d="M225.5,262l-38.1-9.8c0,0-2.3,36.7-6.2,40.9c-3.9,4.2-2.8,59.7,0,63.9c0,0.1,0.1,0.1,0.2,0.2
			c6.3-4.1,13.3-7.3,20.7-9.5c-4.6-16.2-4.9-44.5-4.9-44.5s6.5,1.2,17.6-2.4c14.2-4.4,11.1-25.6,10.8-36.1
			C225.5,263.7,225.5,262.8,225.5,262z"/>
		<linearGradient id="SVGID_24_" gradientUnits="userSpaceOnUse" x1="190.6072" y1="312.908" x2="197.3319" y2="389.1218">
			<stop  offset="0" style="stop-color:#59E3FF"/>
			<stop  offset="1" style="stop-color:#595FFF"/>
		</linearGradient>
		<path class="st35" d="M206.4,357c-1.7-1.9-3.2-5.2-4.3-9.2c-7.4,2.2-14.4,5.4-20.7,9.5C185,361.3,214.9,366.4,206.4,357z"/>
	</g>
	<g>
		<path class="st1" d="M328.5,239.3c0.6-9.6-32.2,0.8-32.6,9c0,0,12.3,98.5,26.9,113.2c7.1-6.2,15.4-11.4,24.4-15.1
			C340.7,314.7,328,246.7,328.5,239.3z"/>
		<linearGradient id="SVGID_25_" gradientUnits="userSpaceOnUse" x1="331.8369" y1="306.8546" x2="338.5361" y2="382.7787">
			<stop  offset="0" style="stop-color:#59E3FF"/>
			<stop  offset="1" style="stop-color:#595FFF"/>
		</linearGradient>
		<path class="st36" d="M323.7,362.3c15.7,11.4,28.2,1.8,27,0c-0.3-0.4-1.6-6.6-3.5-16c-9,3.7-17.3,8.9-24.4,15.1
			C323,361.8,323.3,362.1,323.7,362.3z"/>
	</g>
	<g>
		<path class="st1" d="M267.9,176.1c-18.6,13.2-43.2,14.4-66.9,14.6c-39.2,0.4-16.6,53-11.7,74.1c2.8,12.5,9.3,12.9,22.3,13.5
			c12.3,0.5,24.6-0.1,36.8-2c24.7-3.8,48.6-12.5,69-25.5"/>
	</g>
</g>
<g>
</g>
<g>
</g>
<g>
</g>
<g>
</g>
<g>
</g>
<g>
</g>
<g>
</g>
<g>
</g>
<g>
</g>
<g>
</g>
<g>
</g>
<g>
</g>
<g>
</g>
<g>
</g>
<g>
</g>
</svg>
